# xmcd CD database file
# Copyright (C) 1993-1998 Ti Kan
#
# Track frame offsets:
#	150
#	14962
#	29185
#	45925
#	59927
#	72200
#	85260
#	97287
#	109872
#	123802
#	135712
#	145322
#	159515
#	171030
#	185630
#	203325
#	222072
#	235307
#	247667
#	259245
#
# Disc length: 3648 seconds
#
# Revision: 1
# Processed by: cddbd v1.4b41PL1 Copyright (c) Steve Scherf et al.
# Submitted via: CDValet v3.31 - Copyright (c) 1997 Greg Leichner
#
DISCID=290e3e14
DTITLE=Dickey Lee - Dickey Lee's Americal Music Collection
DYEAR=1900
DGENRE=
TTITLE0=9,999,999 Tears
TTITLE1=I'll Be Leaving Alone
TTITLE2=Rocky
TTITLE3=Laurie (Strange Things Happen)
TTITLE4=Ashes Of Love
TTITLE5=You're The First Time I've Thought About Leaving
TTITLE6=Never Ending Song Of Love
TTITLE7=Let's Fall To Pieces Together
TTITLE8=Everybody's Reaching Out For Someone
TTITLE9=I've Been Around Enough To Know
TTITLE10=I Saw Linda Yesterday
TTITLE11=Patches
TTITLE12=Dream Lover
TTITLE13=She Thinks I Still Care
TTITLE14=Running Bear
TTITLE15=She Believes In Me
TTITLE16=The Door Is Always Open
TTITLE17=Teen Angel
TTITLE18=Mountain Of Love
TTITLE19=Angels, Roses And Rain
EXTD=Track America\nRecords
EXTT0=
EXTT1=
EXTT2=
EXTT3=
EXTT4=
EXTT5=
EXTT6=
EXTT7=
EXTT8=
EXTT9=
EXTT10=
EXTT11=
EXTT12=
EXTT13=
EXTT14=
EXTT15=
EXTT16=
EXTT17=
EXTT18=
EXTT19=
PLAYORDER=
